<svg width="34" height="34" viewBox="0 0 34 34" fill="none" xmlns="http://www.w3.org/2000/svg">
<g clip-path="url(#clip0_2401_1301)">
<path fill-rule="evenodd" clip-rule="evenodd" d="M31.7872 28.7056L30.996 29.997C29.5759 32.3149 26.5457 33.0428 24.2277 31.6228L22.9363 30.8316C20.6183 29.4115 19.8904 26.3813 21.3105 24.0633L22.1017 22.7719C23.5217 20.4539 26.552 19.7261 28.87 21.1461L30.1614 21.9373C32.4793 23.3574 33.2072 26.3876 31.7872 28.7056ZM30.8186 28.1122C31.911 26.3292 31.3511 23.9982 29.568 22.9058L28.2766 22.1147C26.4936 21.0223 24.1626 21.5822 23.0702 23.3653L22.2791 24.6567C21.1867 26.4397 21.7466 28.7707 23.5297 29.863L24.8211 30.6542C26.6041 31.7466 28.9351 31.1867 30.0275 29.4036L30.8186 28.1122Z" fill="#E67861"/>
<path fill-rule="evenodd" clip-rule="evenodd" d="M28.2881 27.894L28.565 27.4421C29.1112 26.5505 28.8313 25.385 27.9397 24.8389L27.2295 24.4037C26.3379 23.8576 25.1725 24.1375 24.6263 25.029L24.3494 25.481C23.8032 26.3725 24.0831 27.538 24.9747 28.0842L25.6849 28.5193C26.5765 29.0655 27.7419 28.7856 28.2881 27.894ZM29.5336 28.0354C30.4075 26.609 29.9595 24.7442 28.5331 23.8703L27.8228 23.4352C26.3964 22.5613 24.5316 23.0092 23.6577 24.4357L23.3808 24.8876C22.5069 26.3141 22.9549 28.1789 24.3813 29.0528L25.0916 29.4879C26.518 30.3618 28.3828 29.9139 29.2567 28.4874L29.5336 28.0354Z" fill="#33485D"/>
<path d="M23.7675 32.2288L24.3609 31.2603L23.3924 30.6669L22.799 31.6354L23.7675 32.2288Z" fill="#E67861"/>
<path d="M29.8595 22.2852L30.4529 21.3167L29.4843 20.7233L28.8909 21.6918L29.8595 22.2852Z" fill="#E67861"/>
<path d="M32.4821 22.1506L32.485 26.6851L31.4145 25.5377L31.3493 22.0853C31.3729 21.6701 31.2737 21.2572 31.0639 20.8981C30.4748 19.8895 29.2442 19.5892 28.2357 20.1783L25.0302 21.7152L23.5167 21.281L27.6635 19.1985C28.2143 18.8774 28.8474 18.7253 29.484 18.7613C31.2766 18.8624 32.5833 20.358 32.4821 22.1506Z" fill="#E67861"/>
<path d="M25.4688 33.5983L29.5099 31.5413L28.0015 31.1087L24.8961 32.6187C24.537 32.8283 24.124 32.9275 23.7088 32.9037C22.5427 32.8369 21.7162 31.877 21.783 30.711L21.6963 27.1571L20.6219 26.0059L20.6502 30.6462C20.6143 31.2828 20.7664 31.9159 21.0875 32.4667C21.9918 34.0178 23.9177 34.5026 25.4688 33.5983Z" fill="#E67861"/>
<path fill-rule="evenodd" clip-rule="evenodd" d="M12.7349 10.053L11.9438 11.3444C10.5237 13.6624 7.49344 14.3902 5.17548 12.9702L3.88409 12.179C1.56612 10.7589 0.83824 7.72867 2.25831 5.4107L3.04947 4.11931C4.46954 1.80134 7.49981 1.07346 9.81778 2.49353L11.1092 3.28469C13.4271 4.70476 14.155 7.73504 12.7349 10.053ZM11.7664 9.45963C12.8588 7.67658 12.2989 5.3456 10.5158 4.25324L9.22441 3.46208C7.44136 2.36972 5.11038 2.92963 4.01802 4.71268L3.22686 6.00407C2.1345 7.78712 2.69441 10.1181 4.47745 11.2105L5.76885 12.0016C7.5519 13.094 9.88288 12.5341 10.9752 10.751L11.7664 9.45963Z" fill="#33485D"/>
<path fill-rule="evenodd" clip-rule="evenodd" d="M9.23598 9.24122L9.51289 8.78923C10.0591 7.89771 9.77911 6.73222 8.88759 6.18604L8.17732 5.7509C7.2858 5.20472 6.12031 5.48467 5.57412 6.3762L5.29722 6.82818C4.75104 7.71971 5.03099 8.8852 5.92252 9.43138L6.63279 9.86651C7.52431 10.4127 8.6898 10.1327 9.23598 9.24122ZM10.4814 9.3826C11.3553 7.95616 10.9074 6.09138 9.48096 5.21749L8.77069 4.78235C7.34425 3.90846 5.47947 4.35639 4.60558 5.78283L4.32867 6.23482C3.45478 7.66125 3.90271 9.52604 5.32915 10.3999L6.03942 10.8351C7.46585 11.709 9.33064 11.261 10.2045 9.83459L10.4814 9.3826Z" fill="#E67861"/>
<path d="M4.71532 13.5762L5.30869 12.6077L4.34014 12.0143L3.74677 12.9828L4.71532 13.5762Z" fill="#33485D"/>
<path d="M10.8072 3.63237L11.4006 2.66382L10.432 2.07045L9.83866 3.039L10.8072 3.63237Z" fill="#33485D"/>
<path d="M13.43 3.49802L13.4328 8.03251L12.3623 6.88514L12.2971 3.43272C12.3208 3.01755 12.2216 2.60458 12.0118 2.24549C11.4226 1.23696 10.192 0.936575 9.18354 1.52572L5.97798 3.06266L4.46449 2.62837L8.61135 0.54596C9.16216 0.22483 9.79525 0.0727583 10.4318 0.108672C12.2244 0.209799 13.5311 1.70542 13.43 3.49802Z" fill="#33485D"/>
<path d="M6.41662 14.9457L10.4577 12.8887L8.94928 12.4561L5.84388 13.9661C5.48477 14.1758 5.0718 14.275 4.6566 14.2511C3.4905 14.1843 2.66395 13.2244 2.73077 12.0584L2.64406 8.5045L1.56972 7.35338L1.59801 11.9937C1.5621 12.6302 1.71417 13.2633 2.0353 13.8141C2.9396 15.3652 4.86553 15.85 6.41662 14.9457Z" fill="#33485D"/>
<path d="M15.761 24.6649C15.7542 24.585 15.7446 24.5057 15.7355 24.4264C15.7191 24.2966 15.6987 24.1674 15.6789 24.0388C15.6517 23.8835 15.6188 23.7305 15.582 23.5792C15.5559 23.471 15.531 23.3627 15.4998 23.2551L15.4941 23.2381C15.4341 23.0341 15.3632 22.8346 15.2862 22.638C15.2754 22.6108 15.2669 22.5813 15.2556 22.5547C15.1723 22.3495 15.0788 22.1501 14.9779 21.954C14.97 21.9381 14.9632 21.9211 14.9547 21.9053C14.8481 21.7024 14.7325 21.5086 14.6084 21.3148C14.6022 21.3057 14.5971 21.2961 14.5909 21.2865C14.4679 21.0995 14.3364 20.9193 14.1976 20.7442C14.1834 20.7289 14.1738 20.7136 14.1625 20.7C14.0344 20.5413 13.8984 20.39 13.7584 20.2427C13.7307 20.2138 13.7057 20.1826 13.6774 20.1543C13.5584 20.033 13.432 19.9197 13.3045 19.8069C13.2479 19.7576 13.1969 19.7049 13.1396 19.6567C13.0399 19.5734 12.9339 19.4986 12.8302 19.4204C12.7396 19.3524 12.6523 19.281 12.5588 19.2176C12.4766 19.1609 12.3888 19.1133 12.3055 19.0612C12.1922 18.9915 12.0856 18.9178 11.9706 18.8549C11.9621 18.8498 11.953 18.8464 11.9445 18.8419C11.8992 18.8169 11.8505 18.7971 11.8046 18.7733C11.6425 18.6894 11.4793 18.6073 11.3116 18.5359C11.2407 18.5053 11.1659 18.4792 11.0934 18.4531C10.9461 18.3965 10.7999 18.3398 10.6491 18.2905C10.5636 18.2633 10.4752 18.2435 10.3879 18.2197C10.2468 18.1806 10.1046 18.1403 9.96178 18.1097C9.86431 18.0888 9.76458 18.0757 9.66598 18.0587C9.52998 18.0361 9.39454 18.0117 9.25741 17.9964C9.14408 17.9834 9.02678 17.9788 8.91118 17.9709C8.79558 17.963 8.66921 17.9545 8.54681 17.9528C8.50714 17.9528 8.46804 17.9465 8.42781 17.9465C8.32014 17.9465 8.21474 17.9579 8.10821 17.963C8.02321 17.9669 7.93821 17.9686 7.85264 17.9754C7.66451 17.9902 7.47978 18.014 7.29618 18.0429C7.25481 18.0491 7.21344 18.0542 7.17151 18.0616C6.95767 18.0993 6.74729 18.1458 6.54024 18.201C6.52664 18.2044 6.51304 18.2061 6.50001 18.2095L6.48018 18.2157C6.25882 18.2769 6.04193 18.3479 5.82964 18.4288L5.77298 18.448C5.56069 18.5308 5.35286 18.6228 5.14964 18.724C5.13208 18.7331 5.11451 18.7404 5.09751 18.7495C4.89861 18.8504 4.70594 18.9609 4.51838 19.0787C4.49684 19.0923 4.47531 19.1042 4.45434 19.1178C4.27754 19.2312 4.10698 19.3536 3.94094 19.4816C3.91034 19.5054 3.87804 19.527 3.84801 19.5513C3.69954 19.6692 3.55788 19.795 3.41961 19.9236C3.37541 19.9644 3.33008 20.0024 3.28758 20.0438C3.17084 20.1571 3.06091 20.2784 2.95154 20.3996C2.89488 20.4631 2.83821 20.5232 2.78154 20.5878C2.69428 20.692 2.61154 20.8025 2.53278 20.9113C2.46704 20.9986 2.39791 21.0813 2.33614 21.1743C2.26758 21.274 2.20808 21.38 2.14461 21.4837C2.08114 21.5874 2.02221 21.6707 1.96838 21.767C1.96441 21.7744 1.96158 21.7823 1.95761 21.7891C1.82614 22.0326 1.70842 22.2832 1.60514 22.5399C1.57624 22.6108 1.55301 22.6822 1.52638 22.7536C1.45328 22.9513 1.38754 23.1502 1.33088 23.3576C1.30878 23.4387 1.28781 23.5191 1.26798 23.6007C1.21924 23.807 1.18014 24.0161 1.14841 24.228C1.13708 24.3034 1.12291 24.3776 1.11441 24.4547C1.07977 24.7394 1.06185 25.0258 1.06058 25.3126C1.06058 25.5285 1.07361 25.7444 1.09344 25.9603C1.10024 26.0402 1.10988 26.1196 1.11894 26.1989C1.13538 26.3287 1.15578 26.4579 1.17561 26.5865C1.20281 26.7418 1.23568 26.8948 1.27251 27.0461C1.29858 27.1543 1.32351 27.2625 1.35468 27.3702L1.36034 27.3872C1.42098 27.5918 1.49181 27.7918 1.56888 27.9884C1.57908 28.0156 1.58758 28.0451 1.59834 28.07C1.68221 28.2763 1.77628 28.4775 1.87771 28.6741C1.88564 28.6888 1.89188 28.7041 1.89924 28.7189C2.00691 28.9236 2.12343 29.1221 2.24888 29.3144C2.25398 29.3224 2.25794 29.3303 2.26304 29.3377C2.38714 29.5269 2.52031 29.7094 2.65971 29.8868C2.66934 29.8987 2.67784 29.9111 2.68748 29.923C2.81668 30.084 2.95494 30.2375 3.09774 30.3871C3.12268 30.4138 3.14591 30.4438 3.17198 30.4687C3.29324 30.5928 3.42244 30.7084 3.55278 30.8235C3.60548 30.8705 3.65534 30.9209 3.70974 30.9663C3.81231 31.0524 3.92224 31.13 4.02991 31.2105C4.11661 31.2757 4.19991 31.3448 4.29058 31.406C4.38124 31.4672 4.46568 31.5137 4.55294 31.5681C4.66174 31.6355 4.76771 31.7075 4.87991 31.7692C4.88728 31.7732 4.89521 31.776 4.90201 31.78C5.14546 31.9115 5.39614 32.0292 5.65284 32.1325C5.72368 32.1614 5.79508 32.1846 5.86648 32.2112C6.06424 32.2843 6.26314 32.3501 6.47054 32.4067C6.55158 32.4288 6.63204 32.4498 6.71364 32.4696C6.91991 32.5184 7.12901 32.5575 7.34094 32.5892C7.41631 32.6005 7.49054 32.6147 7.56761 32.6232C7.85279 32.6586 8.13987 32.6774 8.42724 32.6793C8.64314 32.6793 8.85904 32.6663 9.07494 32.6464C9.15484 32.6396 9.23418 32.63 9.31351 32.6209C9.44328 32.6045 9.57248 32.5841 9.70111 32.5643C9.85638 32.5371 10.0094 32.5042 10.1607 32.4674C10.2683 32.4413 10.3766 32.4169 10.4837 32.3858L10.5007 32.3801C10.7047 32.32 10.9041 32.2492 11.1008 32.1721C11.128 32.1614 11.1574 32.1529 11.1841 32.1415C11.3886 32.0588 11.5881 31.9653 11.783 31.865L11.8335 31.8406C12.0352 31.7345 12.2309 31.6196 12.4205 31.4961C12.4313 31.4893 12.4421 31.4836 12.4528 31.4763C12.6381 31.355 12.8161 31.2247 12.9895 31.0875C13.0053 31.0745 13.0229 31.0632 13.0388 31.0501C13.1946 30.9249 13.3425 30.7912 13.487 30.6535C13.5193 30.6234 13.5533 30.5968 13.585 30.5645C13.7023 30.4512 13.8117 30.3259 13.9216 30.203C13.9749 30.1463 14.031 30.0896 14.082 30.0267C14.1608 29.9321 14.2322 29.8312 14.3087 29.7326C14.3852 29.634 14.456 29.5445 14.5234 29.4453C14.5727 29.3728 14.6152 29.2957 14.6623 29.2187C14.7376 29.0985 14.8175 28.9807 14.8889 28.8554C14.8929 28.8481 14.8957 28.8401 14.8997 28.8328C15.0311 28.5897 15.1486 28.3394 15.2516 28.0831C15.2805 28.0122 15.3037 27.9403 15.3304 27.8689C15.406 27.6713 15.4711 27.4699 15.5259 27.2648C15.548 27.1838 15.5689 27.1039 15.5888 27.0223C15.6375 26.816 15.6766 26.6063 15.7083 26.3938C15.7197 26.319 15.7338 26.2454 15.7423 26.17C15.7762 25.8855 15.7934 25.5992 15.7939 25.3126C15.7939 25.0967 15.7809 24.8808 15.761 24.6649ZM11.8505 22.6635C11.876 22.6312 11.8969 22.596 11.9207 22.5626C11.9604 22.5059 12.0018 22.4538 12.0341 22.396C12.0584 22.3569 12.0783 22.315 12.1004 22.2742C12.1304 22.2175 12.1621 22.1671 12.1882 22.111C12.2086 22.0673 12.2245 22.022 12.242 21.9778C12.2653 21.9211 12.2896 21.8673 12.3089 21.8078C12.3242 21.763 12.3344 21.716 12.3474 21.6701C12.3639 21.6134 12.382 21.5568 12.395 21.4956C12.4052 21.4485 12.4103 21.4009 12.4177 21.3539C12.4279 21.2944 12.4392 21.2355 12.4449 21.1754C12.4494 21.1267 12.4494 21.0785 12.4517 21.0298C12.4545 20.9697 12.4591 20.9102 12.4579 20.8496C12.4579 20.8008 12.4511 20.7515 12.4477 20.7022C12.4443 20.6529 12.4438 20.5991 12.437 20.5475C12.454 20.5617 12.4693 20.5776 12.4857 20.5923C12.6627 20.7453 12.8309 20.9082 12.9895 21.0802C13.0218 21.1148 13.0529 21.1493 13.0841 21.1845C13.4371 21.5823 13.7383 22.0233 13.9806 22.4969C13.993 22.5218 14.0044 22.5473 14.0168 22.5722C14.1271 22.7958 14.2236 23.0259 14.3058 23.2613C14.3121 23.2766 14.3206 23.2913 14.3234 23.3072L14.3223 23.3146L13.7539 24.066C13.432 24.493 12.9287 24.7446 12.3939 24.746H10.0309C10.0213 24.7188 10.0088 24.6933 9.99804 24.6666L9.98671 24.6394C9.97821 24.6196 9.97141 24.5992 9.96178 24.5794L11.6329 22.9083C11.71 22.8309 11.7827 22.7492 11.8505 22.6635ZM8.30031 19.0855C8.46238 19.0821 8.62388 19.0855 8.78481 19.0974C8.86584 19.102 8.94801 19.102 9.02848 19.1099C9.25522 19.1311 9.48054 19.1651 9.70338 19.2119C9.76344 19.2244 9.82124 19.2431 9.88074 19.2572C10.0507 19.2986 10.2207 19.3439 10.3862 19.3995C10.4627 19.425 10.5369 19.4561 10.6129 19.4822C10.7599 19.5374 10.9047 19.598 11.0475 19.6641C11.0917 19.6845 11.1353 19.706 11.1795 19.7276L11.3133 20.6648C11.3878 21.1943 11.21 21.7281 10.8327 22.107L9.16164 23.7781C9.14181 23.7685 9.12141 23.7617 9.10158 23.7532L9.07438 23.7418C9.04774 23.7311 9.02224 23.7186 8.99504 23.709V21.0456C8.99356 20.8804 8.97762 20.7156 8.94744 20.5532C8.93951 20.5079 8.92931 20.4631 8.91911 20.4183C8.89142 20.295 8.85543 20.1736 8.81144 20.0551C8.79784 20.0183 8.78708 19.9814 8.77234 19.9457C8.71107 19.7995 8.63769 19.6587 8.55304 19.5247C8.53491 19.4969 8.51338 19.4714 8.49638 19.4437C8.42335 19.3376 8.34309 19.2366 8.25611 19.1416C8.24138 19.1252 8.23004 19.1054 8.21474 19.0889C8.24138 19.0889 8.27084 19.0861 8.30031 19.0855ZM3.70408 21.2564V21.2576C3.86962 21.0663 4.04656 20.8852 4.23391 20.7153C4.26338 20.6886 4.29058 20.6586 4.32174 20.6354C4.75149 20.2587 5.23061 19.9425 5.74578 19.6953L5.77241 19.6828C6.03775 19.5568 6.31174 19.45 6.59238 19.3632L6.92104 19.5275C7.49819 19.8135 7.86256 20.4027 7.86058 21.0468V23.7101C7.83338 23.7197 7.80788 23.7322 7.78124 23.743L7.75404 23.7543C7.73421 23.7628 7.71381 23.7696 7.69398 23.7792L6.02288 22.1081C5.90069 21.9887 5.76795 21.8806 5.62621 21.7851C5.60411 21.7698 5.58258 21.754 5.55991 21.7392C5.42334 21.6514 5.27941 21.5756 5.12981 21.5126C5.10431 21.5018 5.07881 21.4922 5.05274 21.482C4.89762 21.4198 4.73747 21.3713 4.57391 21.3369L4.54728 21.3329C4.38486 21.3027 4.2201 21.2865 4.05484 21.2848C4.04124 21.2848 4.02764 21.2802 4.01348 21.2802C3.99931 21.2802 3.99478 21.2802 3.98571 21.2802C3.91261 21.2802 3.83951 21.287 3.76641 21.2938C3.73184 21.2938 3.69728 21.2938 3.66271 21.3006C3.67744 21.2848 3.69104 21.2712 3.70408 21.2564ZM2.32028 25.7303V25.7342C2.28741 25.7722 2.25171 25.8085 2.22111 25.8476C2.20581 25.6685 2.19391 25.4923 2.19391 25.3126C2.19455 25.0854 2.20758 24.8585 2.23301 24.6326C2.23924 24.576 2.25114 24.5193 2.25851 24.466C2.28231 24.296 2.30894 24.126 2.34634 23.9623C2.36108 23.8943 2.38091 23.8285 2.39791 23.7611C2.43644 23.6121 2.47894 23.4642 2.52824 23.318C2.55374 23.242 2.58208 23.1672 2.61098 23.0913C2.66084 22.9604 2.71581 22.8312 2.77474 22.7037C2.79628 22.6567 2.81951 22.6096 2.84218 22.5632L3.77944 22.4294C4.30892 22.3544 4.84301 22.5323 5.22161 22.91L6.89271 24.5811C6.88364 24.6003 6.87684 24.6207 6.86834 24.6377L6.85588 24.6672C6.84511 24.6933 6.83264 24.7188 6.82358 24.7454H4.46058C4.35114 24.7455 4.24177 24.752 4.13304 24.7647C4.09508 24.7692 4.05824 24.7788 4.01971 24.7845C3.95001 24.7958 3.87974 24.8055 3.81118 24.8219C3.76868 24.8321 3.72731 24.8468 3.68481 24.8593C3.62304 24.8769 3.56071 24.8927 3.50064 24.916C3.45701 24.9318 3.41508 24.9522 3.37258 24.9726C3.31591 24.9964 3.25924 25.018 3.20258 25.0457C3.15894 25.0673 3.11814 25.0933 3.07564 25.1171C3.02408 25.146 2.97138 25.1738 2.92151 25.2055C2.87164 25.2373 2.84048 25.2622 2.79968 25.2934C2.75888 25.3245 2.70448 25.3597 2.65914 25.3971C2.61381 25.4345 2.58491 25.4645 2.54581 25.4985C2.50671 25.5325 2.45854 25.5761 2.41831 25.6181C2.37808 25.66 2.35371 25.6917 2.32028 25.7303ZM5.00344 27.9624V27.9663C4.98248 27.993 4.96548 28.023 4.94678 28.0491C4.90258 28.1097 4.85724 28.1698 4.81814 28.2338C4.79718 28.2672 4.78074 28.3035 4.76148 28.3381C4.72804 28.3947 4.69291 28.4571 4.66401 28.5188C4.64531 28.5585 4.63171 28.5993 4.61528 28.6395C4.59034 28.699 4.56428 28.7585 4.54331 28.8197C4.52914 28.8622 4.51951 28.9059 4.50761 28.9489C4.49004 29.0096 4.47078 29.0696 4.45774 29.132C4.44811 29.1773 4.44301 29.2232 4.43564 29.2691C4.42544 29.3297 4.41411 29.3904 4.40788 29.4521C4.40334 29.4997 4.40334 29.5479 4.40108 29.5961C4.40108 29.6567 4.39371 29.7168 4.39484 29.7768C4.39484 29.8267 4.40164 29.876 4.40504 29.9259C4.40844 29.9757 4.40901 30.0284 4.41581 30.0794C4.40051 30.0664 4.38634 30.0522 4.37161 30.0392C4.1924 29.8839 4.02212 29.7185 3.86161 29.5439C3.83101 29.5111 3.80041 29.4776 3.77038 29.4442C3.41791 29.0459 3.11708 28.6048 2.87504 28.1312C2.86258 28.1074 2.85124 28.0825 2.83934 28.0581C2.72906 27.8341 2.6323 27.6036 2.54978 27.3679C2.54411 27.3526 2.53788 27.3379 2.53278 27.322L3.10058 26.5593C3.42266 26.1324 3.92586 25.8808 4.46058 25.8793H6.82358C6.83264 25.9059 6.84511 25.9314 6.85588 25.9575L6.86834 25.987C6.87684 26.0062 6.88364 26.0266 6.89271 26.0436L5.22161 27.7147C5.14419 27.7931 5.07137 27.8757 5.00344 27.9624ZM8.85791 31.5239L8.85678 31.5278C8.64803 31.5428 8.43865 31.5468 8.22948 31.5397C8.15014 31.5397 8.07024 31.5335 7.99148 31.5278C7.78861 31.5139 7.58688 31.4899 7.38628 31.4559C7.33641 31.4474 7.28541 31.4428 7.23611 31.4332C6.98685 31.3845 6.74084 31.3205 6.49944 31.2417C6.44901 31.2252 6.40084 31.2048 6.35098 31.185C6.16207 31.1178 5.97584 31.0413 5.79224 30.9555C5.75258 30.9374 5.71404 30.9187 5.67494 30.8988L5.54234 29.9593C5.46776 29.4298 5.64562 28.896 6.02288 28.5171L7.69398 26.846C7.71381 26.8557 7.73421 26.8625 7.75461 26.8715L7.78124 26.8823C7.80731 26.8931 7.83338 26.9055 7.86058 26.9152V29.2793C7.86072 29.3887 7.86717 29.4981 7.87984 29.6068C7.88438 29.6454 7.89401 29.6822 7.89968 29.7202C7.91101 29.7899 7.92064 29.8596 7.93708 29.9281C7.94728 29.9718 7.96258 30.0137 7.97504 30.0568C7.99261 30.118 8.00848 30.1792 8.03171 30.2392C8.04758 30.2829 8.06854 30.3248 8.08838 30.3684C8.11218 30.4251 8.13428 30.4818 8.16148 30.5384C8.18301 30.5821 8.20908 30.6229 8.23288 30.6654C8.26178 30.7169 8.28954 30.7702 8.32128 30.8201C8.35301 30.8699 8.37794 30.9017 8.40968 30.9425C8.44141 30.9833 8.47598 31.0371 8.51224 31.0819C8.54851 31.1266 8.58081 31.1572 8.61538 31.1952C8.64994 31.2332 8.69188 31.2819 8.73381 31.3221C8.77574 31.3624 8.81031 31.389 8.84714 31.4224C8.88398 31.4559 8.92138 31.4904 8.96048 31.521C8.92591 31.5216 8.89134 31.5216 8.85791 31.5239ZM8.94971 25.5331C8.93016 25.5697 8.907 25.6043 8.88058 25.6362C8.84431 25.6866 8.80011 25.7308 8.74968 25.7671C8.71773 25.7935 8.68317 25.8167 8.64654 25.8362C8.50629 25.8951 8.3482 25.8951 8.20794 25.8362C8.17132 25.8167 8.13676 25.7935 8.10481 25.7671C8.05827 25.7342 8.01719 25.6942 7.98298 25.6487C7.95245 25.6142 7.92624 25.5761 7.90478 25.5353C7.84591 25.3951 7.84591 25.237 7.90478 25.0967C7.92582 25.054 7.95209 25.014 7.98298 24.9777V24.9789C8.01719 24.9333 8.05827 24.8934 8.10481 24.8604C8.13676 24.834 8.17132 24.8109 8.20794 24.7913C8.3482 24.7324 8.50629 24.7324 8.64654 24.7913C8.68317 24.8109 8.71773 24.834 8.74968 24.8604C8.80011 24.8967 8.84431 24.9409 8.88058 24.9913C8.907 25.0233 8.93016 25.0578 8.94971 25.0945C9.00857 25.2347 9.00857 25.3928 8.94971 25.5331ZM13.1453 29.3739L13.1442 29.3779C12.9912 29.5549 12.8283 29.7231 12.6563 29.8817C12.6217 29.914 12.5871 29.9451 12.552 29.9763C12.1548 30.3267 11.715 30.6256 11.243 30.866L11.1676 30.9022C10.944 31.0125 10.714 31.109 10.4786 31.1912C10.4633 31.1969 10.4485 31.2031 10.4327 31.2082L9.67391 30.6393C9.24686 30.3174 8.99526 29.8141 8.99391 29.2793V26.9163C9.02111 26.9067 9.04661 26.8942 9.07324 26.8834L9.10044 26.8721C9.12028 26.8636 9.14068 26.8568 9.16051 26.8472L10.8316 28.5183C10.9538 28.638 11.0865 28.7465 11.2283 28.8424L11.2906 28.886C11.4272 28.9739 11.571 29.0497 11.7207 29.1127C11.7468 29.124 11.7723 29.1342 11.7983 29.1444C11.9515 29.2055 12.1096 29.2533 12.2709 29.2872C12.2874 29.2906 12.3044 29.2923 12.3208 29.2952C12.4845 29.3263 12.6506 29.3428 12.8172 29.3445C12.8251 29.3445 12.8325 29.3445 12.8399 29.3445H12.8501C12.9638 29.3443 13.0773 29.3371 13.1901 29.3229C13.1759 29.3422 13.16 29.3575 13.1453 29.3739ZM14.6203 25.9994C14.6141 26.0561 14.6022 26.1128 14.5943 26.1694C14.571 26.3394 14.5444 26.5043 14.5076 26.6692C14.4923 26.7384 14.4724 26.8058 14.4549 26.8738C14.4163 27.0217 14.375 27.1685 14.3257 27.313C14.2996 27.39 14.269 27.466 14.2418 27.5396C14.1919 27.67 14.1375 27.798 14.0792 27.925C14.0571 27.9726 14.0338 28.019 14.0112 28.0661L13.0739 28.1998C12.5445 28.274 12.0108 28.0962 11.6317 27.7193L9.96065 26.0482C9.97028 26.0283 9.97708 26.0079 9.98558 25.9881L9.99691 25.9609C10.0077 25.9343 10.0201 25.9088 10.0298 25.8816H12.3939C12.5033 25.8814 12.6127 25.875 12.7214 25.8623C12.76 25.8578 12.7968 25.8481 12.8348 25.8425C12.9045 25.8311 12.9742 25.8215 13.0427 25.8051C13.0864 25.7949 13.1283 25.7796 13.1714 25.7671C13.2326 25.7495 13.2938 25.7337 13.3538 25.7104C13.3975 25.6946 13.4394 25.6736 13.483 25.6538C13.5397 25.63 13.5964 25.6079 13.653 25.5807C13.6967 25.5591 13.7375 25.5331 13.78 25.5093C13.8315 25.4804 13.8848 25.4526 13.9347 25.4209C13.9845 25.3891 14.0163 25.3642 14.0571 25.3325C14.0979 25.3007 14.1517 25.2662 14.1965 25.2299C14.2412 25.1936 14.2718 25.1613 14.3098 25.1268C14.3478 25.0922 14.3965 25.0503 14.4367 25.0083C14.477 24.9664 14.5013 24.9335 14.5348 24.895L14.5336 24.9012C14.5665 24.8627 14.6016 24.827 14.6322 24.7879C14.6475 24.9636 14.6594 25.1398 14.6594 25.3194C14.6588 25.5467 14.6458 25.7736 14.6203 25.9994Z" fill="#33485D"/>
<path d="M5.20303 18.213L5.76559 17.4884L8.47083 19.5886L7.90827 20.3132L5.20303 18.213Z" fill="#33485D"/>
<path d="M8.59287 30.9891L9.15542 30.2645L11.8607 32.3647L11.2981 33.0894L8.59287 30.9891Z" fill="#33485D"/>
<path d="M11.1814 17.9316L12.0916 17.8171L12.5194 21.215L11.6092 21.3296L11.1814 17.9316Z" fill="#33485D"/>
<path d="M4.54429 29.3627L5.45446 29.2481L5.88228 32.6461L4.97211 32.7607L4.54429 29.3627Z" fill="#33485D"/>
<path d="M1.17462 22.6393L1.06003 21.7291L4.458 21.3013L4.57259 22.2115L1.17462 22.6393Z" fill="#33485D"/>
<path d="M12.6057 29.2764L12.4911 28.3663L15.8891 27.9384L16.0037 28.8486L12.6057 29.2764Z" fill="#33485D"/>
<path d="M1.45598 28.6177L0.731358 28.0551L2.83157 25.3499L3.55619 25.9125L1.45598 28.6177Z" fill="#33485D"/>
<path d="M14.2321 25.2279L13.5075 24.6653L15.6077 21.9601L16.3323 22.5226L14.2321 25.2279Z" fill="#33485D"/>
<path d="M7.69674 17.2439L8.49335 16.7284L10.4178 19.7024L9.6212 20.2179L7.69674 17.2439Z" fill="#E67861"/>
<path d="M6.64552 30.8753L7.44213 30.3599L9.36659 33.3339L8.56998 33.8493L6.64552 30.8753Z" fill="#E67861"/>
<path d="M13.6299 19.0098L14.5577 19.2086L13.8156 22.6723L12.8878 22.4736L13.6299 19.0098Z" fill="#E67861"/>
<path d="M3.24773 27.9054L4.17552 28.1042L3.43337 31.5679L2.50559 31.3691L3.24773 27.9054Z" fill="#E67861"/>
<path d="M2.25261 20.1906L2.4514 19.2628L5.91514 20.0049L5.71635 20.9327L2.25261 20.1906Z" fill="#E67861"/>
<path d="M11.1482 30.5728L11.347 29.645L14.8107 30.3872L14.6119 31.315L11.1482 30.5728Z" fill="#E67861"/>
<path d="M0.486666 26.1238L-0.0288138 25.3272L2.94519 23.4027L3.46067 24.1994L0.486666 26.1238Z" fill="#E67861"/>
<path d="M14.1181 27.175L13.6026 26.3784L16.5767 24.454L17.0921 25.2506L14.1181 27.175Z" fill="#E67861"/>
<path d="M32.7744 7.95888C32.7676 7.87898 32.7579 7.79965 32.7489 7.72031C32.7324 7.59055 32.712 7.46135 32.6922 7.33271C32.665 7.17745 32.6321 7.02445 32.5953 6.87315C32.5692 6.76491 32.5443 6.65668 32.5131 6.54901L32.5075 6.53201C32.4474 6.32801 32.3766 6.12855 32.2995 5.93191C32.2887 5.90471 32.2802 5.87525 32.2689 5.84861C32.1856 5.64348 32.0921 5.44401 31.9912 5.24795C31.9833 5.23208 31.9765 5.21508 31.968 5.19921C31.8615 4.99635 31.7459 4.80255 31.6218 4.60875C31.6155 4.59968 31.6104 4.59005 31.6042 4.58041C31.4812 4.39341 31.3498 4.21321 31.2109 4.03811C31.1968 4.02281 31.1871 4.00751 31.1758 3.99391C31.0477 3.83525 30.9117 3.68395 30.7718 3.53661C30.744 3.50771 30.7191 3.47655 30.6907 3.44821C30.5717 3.32695 30.4454 3.21361 30.3179 3.10085C30.2612 3.05155 30.2102 2.99885 30.153 2.95068C30.0532 2.86738 29.9473 2.79258 29.8436 2.71438C29.7529 2.64638 29.6656 2.57498 29.5721 2.51151C29.49 2.45485 29.4021 2.40725 29.3188 2.35511C29.2055 2.28541 29.099 2.21175 28.9839 2.14885C28.9754 2.14375 28.9664 2.14035 28.9579 2.13581C28.9125 2.11088 28.8638 2.09105 28.8179 2.06725C28.6558 1.98338 28.4926 1.90121 28.3249 1.82981C28.2541 1.79921 28.1793 1.77315 28.1067 1.74708C27.9594 1.69041 27.8132 1.63375 27.6625 1.58445C27.5769 1.55725 27.4885 1.53741 27.4012 1.51361C27.2601 1.47451 27.1179 1.43428 26.9751 1.40368C26.8776 1.38271 26.7779 1.36968 26.6793 1.35268C26.5433 1.33001 26.4079 1.30565 26.2707 1.29035C26.1574 1.27731 26.0401 1.27278 25.9245 1.26485C25.8089 1.25691 25.6825 1.24841 25.5601 1.24671C25.5205 1.24671 25.4814 1.24048 25.4411 1.24048C25.3335 1.24048 25.2281 1.25181 25.1215 1.25691C25.0365 1.26088 24.9515 1.26258 24.866 1.26938C24.6778 1.28411 24.4931 1.30791 24.3095 1.33681C24.2681 1.34305 24.2268 1.34815 24.1848 1.35551C23.971 1.39327 23.7606 1.43973 23.5536 1.49491C23.54 1.49831 23.5264 1.50001 23.5133 1.50341L23.4935 1.50965C23.2722 1.57085 23.0553 1.64189 22.843 1.72271L22.7863 1.74198C22.574 1.82471 22.3662 1.91672 22.163 2.01795C22.1454 2.02701 22.1278 2.03438 22.1108 2.04345C21.9119 2.14431 21.7193 2.25481 21.5317 2.37268C21.5102 2.38628 21.4886 2.39818 21.4677 2.41178C21.2909 2.52511 21.1203 2.64751 20.9543 2.77558C20.9237 2.79938 20.8914 2.82091 20.8613 2.84528C20.7129 2.96315 20.5712 3.08895 20.4329 3.21758C20.3887 3.25838 20.3434 3.29635 20.3009 3.33771C20.1842 3.45105 20.0742 3.57231 19.9649 3.69358C19.9082 3.75705 19.8515 3.81711 19.7949 3.88171C19.7076 3.98598 19.6249 4.09648 19.5461 4.20528C19.4804 4.29255 19.4112 4.37528 19.3495 4.46821C19.2809 4.56795 19.2214 4.67391 19.1579 4.77761C19.0945 4.88131 19.0355 4.96461 18.9817 5.06095C18.9777 5.06831 18.9749 5.07625 18.9709 5.08305C18.8395 5.3265 18.7218 5.57718 18.6185 5.83388C18.5896 5.90471 18.5663 5.97611 18.5397 6.04751C18.4666 6.24528 18.4009 6.44418 18.3442 6.65158C18.3221 6.73261 18.3011 6.81308 18.2813 6.89468C18.2326 7.10095 18.1935 7.31005 18.1617 7.52198C18.1504 7.59735 18.1362 7.67158 18.1277 7.74865C18.0931 8.03333 18.0752 8.31978 18.0739 8.60658C18.0739 8.82248 18.0869 9.03838 18.1068 9.25428C18.1136 9.33418 18.1232 9.41351 18.1323 9.49285C18.1487 9.62261 18.1691 9.75181 18.1889 9.88045C18.2161 10.0357 18.249 10.1887 18.2858 10.34C18.3119 10.4482 18.3368 10.5565 18.368 10.6641L18.3737 10.6811C18.4343 10.8857 18.5051 11.0857 18.5822 11.2824C18.5924 11.3096 18.6009 11.339 18.6117 11.364C18.6955 11.5702 18.7896 11.7714 18.891 11.968C18.899 11.9828 18.9052 11.9981 18.9126 12.0128C19.0202 12.2176 19.1368 12.4161 19.2622 12.6084C19.2673 12.6163 19.2713 12.6242 19.2764 12.6316C19.4005 12.8209 19.5336 13.0033 19.673 13.1807C19.6827 13.1926 19.6912 13.2051 19.7008 13.217C19.83 13.3779 19.9683 13.5315 20.1111 13.6811C20.136 13.7077 20.1592 13.7377 20.1853 13.7627C20.3066 13.8868 20.4358 14.0024 20.5661 14.1174C20.6188 14.1644 20.6687 14.2149 20.7231 14.2602C20.8256 14.3463 20.9356 14.424 21.0432 14.5044C21.1299 14.5696 21.2132 14.6387 21.3039 14.6999C21.3946 14.7611 21.479 14.8076 21.5663 14.862C21.6751 14.9294 21.781 15.0014 21.8932 15.0632C21.9006 15.0671 21.9085 15.07 21.9153 15.0739C22.1588 15.2054 22.4095 15.3231 22.6662 15.4264C22.737 15.4553 22.8084 15.4785 22.8798 15.5052C23.0776 15.5783 23.2765 15.644 23.4839 15.7007C23.5649 15.7228 23.6454 15.7437 23.727 15.7636C23.9332 15.8123 24.1423 15.8514 24.3543 15.8831C24.4296 15.8945 24.5039 15.9086 24.5809 15.9171C24.8661 15.9526 25.1532 15.9713 25.4406 15.9732C25.6565 15.9732 25.8724 15.9602 26.0883 15.9404C26.1682 15.9336 26.2475 15.9239 26.3268 15.9149C26.4566 15.8984 26.5858 15.878 26.7144 15.8582C26.8697 15.831 27.0227 15.7981 27.174 15.7613C27.2817 15.7352 27.3899 15.7109 27.497 15.6797L27.514 15.674C27.718 15.614 27.9175 15.5431 28.1141 15.4661C28.1413 15.4553 28.1708 15.4468 28.1974 15.4355C28.402 15.3527 28.6014 15.2592 28.7964 15.1589L28.8468 15.1346C29.0485 15.0284 29.2443 14.9136 29.4339 14.79C29.4446 14.7832 29.4554 14.7776 29.4662 14.7702C29.6515 14.6489 29.8294 14.5186 30.0028 14.3815C30.0187 14.3684 30.0362 14.3571 30.0521 14.3441C30.2079 14.2188 30.3558 14.0851 30.5003 13.9474C30.5326 13.9174 30.5666 13.8907 30.5984 13.8584C30.7157 13.7451 30.825 13.6199 30.935 13.4969C30.9882 13.4402 31.0443 13.3836 31.0953 13.3207C31.1741 13.226 31.2455 13.1252 31.322 13.0266C31.3985 12.928 31.4693 12.8384 31.5368 12.7393C31.5861 12.6667 31.6286 12.5897 31.6756 12.5126C31.751 12.3925 31.8309 12.2746 31.9023 12.1494C31.9062 12.142 31.9091 12.1341 31.913 12.1267C32.0444 11.8837 32.1619 11.6334 32.2649 11.377C32.2938 11.3062 32.3171 11.2342 32.3437 11.1628C32.4193 10.9653 32.4844 10.7639 32.5392 10.5587C32.5613 10.4777 32.5823 10.3978 32.6021 10.3162C32.6508 10.1099 32.6899 9.90028 32.7217 9.68778C32.733 9.61298 32.7472 9.53931 32.7557 9.46395C32.7895 9.17941 32.8067 8.8931 32.8072 8.60658C32.8072 8.39068 32.7942 8.17478 32.7744 7.95888ZM28.8638 5.95741C28.8893 5.92511 28.9103 5.88998 28.9341 5.85655C28.9737 5.79988 29.0151 5.74775 29.0474 5.68995C29.0718 5.65085 29.0916 5.60891 29.1137 5.56811C29.1437 5.51145 29.1755 5.46101 29.2015 5.40491C29.2219 5.36128 29.2378 5.31595 29.2554 5.27175C29.2786 5.21508 29.303 5.16125 29.3222 5.10175C29.3375 5.05698 29.3477 5.00995 29.3608 4.96405C29.3772 4.90738 29.3953 4.85071 29.4084 4.78951C29.4186 4.74248 29.4237 4.69488 29.431 4.64785C29.4412 4.58835 29.4526 4.52941 29.4582 4.46935C29.4628 4.42061 29.4628 4.37245 29.465 4.32371C29.4679 4.26365 29.4724 4.20415 29.4713 4.14351C29.4713 4.09478 29.4645 4.04548 29.4611 3.99618C29.4577 3.94688 29.4571 3.89305 29.4503 3.84148C29.4673 3.85565 29.4826 3.87151 29.499 3.88625C29.6761 4.03925 29.8442 4.20216 30.0028 4.37415C30.0351 4.40871 30.0663 4.44328 30.0974 4.47841C30.4505 4.87628 30.7517 5.31729 30.9939 5.79081C31.0064 5.81575 31.0177 5.84125 31.0302 5.86618C31.1405 6.08973 31.2369 6.31987 31.3192 6.55525C31.3254 6.57055 31.3339 6.58528 31.3367 6.60115L31.3356 6.60851L30.7672 7.35991C30.4453 7.78697 29.942 8.03857 29.4072 8.03991H27.0442C27.0346 8.01271 27.0221 7.98721 27.0114 7.96058L27 7.93338C26.9915 7.91355 26.9847 7.89315 26.9751 7.87331L28.6462 6.20221C28.7233 6.12486 28.796 6.04312 28.8638 5.95741ZM25.3136 2.37948C25.4757 2.37608 25.6372 2.37948 25.7981 2.39138C25.8792 2.39591 25.9613 2.39591 26.0418 2.40385C26.2685 2.42503 26.4939 2.4591 26.7167 2.50585C26.7768 2.51831 26.8346 2.53701 26.8941 2.55118C27.0641 2.59255 27.2341 2.63788 27.3995 2.69341C27.476 2.71891 27.5503 2.75008 27.6262 2.77615C27.7732 2.83133 27.918 2.89196 28.0608 2.95805C28.105 2.97845 28.1487 2.99998 28.1929 3.02151L28.3266 3.95878C28.4011 4.48826 28.2233 5.02206 27.8461 5.40095L26.175 7.07205C26.1551 7.06241 26.1347 7.05561 26.1149 7.04711L26.0877 7.03578C26.0611 7.02501 26.0356 7.01255 26.0084 7.00291V4.33958C26.0069 4.17432 25.9909 4.00957 25.9608 3.84715C25.9528 3.80181 25.9426 3.75705 25.9324 3.71228C25.9047 3.58896 25.8688 3.46755 25.8248 3.34905C25.8112 3.31221 25.8004 3.27538 25.7857 3.23968C25.7244 3.09348 25.651 2.95266 25.5664 2.81865C25.5482 2.79088 25.5267 2.76538 25.5097 2.73761C25.4367 2.6315 25.3564 2.53057 25.2694 2.43558C25.2547 2.41915 25.2434 2.39931 25.2281 2.38288C25.2547 2.38288 25.2842 2.38005 25.3136 2.37948ZM20.7174 4.55038V4.55151C20.8829 4.36026 21.0599 4.17914 21.2472 4.00921C21.2767 3.98258 21.3039 3.95255 21.3351 3.92931C21.7648 3.55269 22.2439 3.23642 22.7591 2.98921L22.7857 2.97675C23.0511 2.85073 23.3251 2.74392 23.6057 2.65715L23.9344 2.82148C24.5115 3.10743 24.8759 3.69662 24.8739 4.34071V7.00405C24.8467 7.01368 24.8212 7.02615 24.7946 7.03691L24.7674 7.04825C24.7475 7.05675 24.7271 7.06355 24.7073 7.07318L23.0362 5.40208C22.914 5.28265 22.7813 5.17456 22.6395 5.07908C22.6174 5.06378 22.5959 5.04791 22.5732 5.03318C22.4367 4.94535 22.2927 4.86955 22.1431 4.80651C22.1176 4.79575 22.0921 4.78611 22.0661 4.77591C21.911 4.71372 21.7508 4.6652 21.5872 4.63085L21.5606 4.62688C21.3982 4.59663 21.2334 4.58048 21.0682 4.57871C21.0546 4.57871 21.041 4.57418 21.0268 4.57418C21.0126 4.57418 21.0081 4.57418 20.999 4.57418C20.9259 4.57418 20.8528 4.58098 20.7797 4.58778C20.7452 4.58778 20.7106 4.58778 20.676 4.59458C20.6908 4.57871 20.7044 4.56511 20.7174 4.55038ZM19.3336 9.02421V9.02818C19.3007 9.06615 19.265 9.10241 19.2344 9.14151C19.2191 8.96245 19.2072 8.78621 19.2072 8.60658C19.2079 8.37935 19.2209 8.1524 19.2463 7.92658C19.2526 7.86991 19.2645 7.81325 19.2718 7.75998C19.2956 7.58998 19.3223 7.41998 19.3597 7.25621C19.3744 7.18821 19.3942 7.12248 19.4112 7.05505C19.4498 6.90601 19.4923 6.75811 19.5416 6.61191C19.5671 6.53598 19.5954 6.46118 19.6243 6.38525C19.6742 6.25435 19.7291 6.12515 19.7881 5.99765C19.8096 5.95061 19.8328 5.90358 19.8555 5.85711L20.7928 5.72338C21.3223 5.6483 21.8563 5.82623 22.2349 6.20391L23.906 7.87501C23.897 7.89428 23.8902 7.91468 23.8817 7.93168L23.8692 7.96115C23.8584 7.98721 23.846 8.01271 23.8369 8.03935H21.4739C21.3645 8.03949 21.2551 8.04593 21.1464 8.05861C21.1084 8.06315 21.0716 8.07278 21.033 8.07845C20.9633 8.08978 20.8931 8.09941 20.8245 8.11585C20.782 8.12605 20.7406 8.14078 20.6981 8.15325C20.6364 8.17081 20.574 8.18668 20.514 8.20991C20.4703 8.22578 20.4284 8.24618 20.3859 8.26658C20.3292 8.29038 20.2726 8.31191 20.2159 8.33968C20.1723 8.36121 20.1315 8.38728 20.089 8.41108C20.0374 8.43998 19.9847 8.46775 19.9348 8.49948C19.885 8.53121 19.8538 8.55615 19.813 8.58731C19.7722 8.61848 19.7178 8.65361 19.6725 8.69101C19.6271 8.72841 19.5982 8.75845 19.5591 8.79245C19.52 8.82645 19.4719 8.87008 19.4316 8.91201C19.3914 8.95395 19.367 8.98568 19.3336 9.02421ZM22.0168 11.2563V11.2603C21.9958 11.2869 21.9788 11.3169 21.9601 11.343C21.9159 11.4036 21.8706 11.4637 21.8315 11.5277C21.8105 11.5612 21.7941 11.5974 21.7748 11.632C21.7414 11.6887 21.7062 11.751 21.6773 11.8128C21.6586 11.8524 21.645 11.8932 21.6286 11.9335C21.6037 11.993 21.5776 12.0525 21.5566 12.1137C21.5425 12.1562 21.5328 12.1998 21.5209 12.2429C21.5034 12.3035 21.4841 12.3636 21.4711 12.4259C21.4614 12.4712 21.4563 12.5171 21.449 12.563C21.4388 12.6237 21.4274 12.6843 21.4212 12.7461C21.4167 12.7937 21.4167 12.8418 21.4144 12.89C21.4144 12.9506 21.407 13.0107 21.4082 13.0708C21.4082 13.1206 21.415 13.1699 21.4184 13.2198C21.4218 13.2697 21.4223 13.3224 21.4291 13.3734C21.4138 13.3603 21.3997 13.3462 21.3849 13.3331C21.2057 13.1778 21.0355 13.0125 20.8749 12.8379C20.8443 12.805 20.8137 12.7716 20.7837 12.7381C20.4312 12.3399 20.1304 11.8987 19.8884 11.4252C19.8759 11.4014 19.8646 11.3764 19.8527 11.3521C19.7424 11.128 19.6456 10.8975 19.5631 10.6619C19.5574 10.6466 19.5512 10.6318 19.5461 10.616L20.1139 9.85325C20.436 9.42633 20.9392 9.17473 21.4739 9.17325H23.8369C23.846 9.19988 23.8584 9.22538 23.8692 9.25145L23.8817 9.28091C23.8902 9.30018 23.897 9.32058 23.906 9.33758L22.2349 11.0087C22.1575 11.087 22.0847 11.1697 22.0168 11.2563ZM25.8712 14.8178L25.8701 14.8218C25.6614 14.8368 25.452 14.8408 25.2428 14.8337C25.1635 14.8337 25.0836 14.8274 25.0048 14.8218C24.8019 14.8078 24.6002 14.7838 24.3996 14.7498C24.3497 14.7413 24.2987 14.7368 24.2494 14.7271C24.0002 14.6784 23.7542 14.6145 23.5128 14.5356C23.4623 14.5192 23.4142 14.4988 23.3643 14.4789C23.1754 14.4117 22.9892 14.3352 22.8056 14.2494C22.7659 14.2313 22.7274 14.2126 22.6883 14.1928L22.5557 13.2532C22.4811 12.7238 22.659 12.19 23.0362 11.8111L24.7073 10.14C24.7271 10.1496 24.7475 10.1564 24.7679 10.1655L24.7946 10.1762C24.8206 10.187 24.8467 10.1995 24.8739 10.2091V12.5732C24.8741 12.6827 24.8805 12.7921 24.8932 12.9008C24.8977 12.9393 24.9073 12.9761 24.913 13.0141C24.9243 13.0838 24.934 13.1535 24.9504 13.2221C24.9606 13.2657 24.9759 13.3076 24.9884 13.3507C25.0059 13.4119 25.0218 13.4731 25.045 13.5332C25.0609 13.5768 25.0819 13.6187 25.1017 13.6624C25.1255 13.719 25.1476 13.7757 25.1748 13.8324C25.1963 13.876 25.2224 13.9168 25.2462 13.9593C25.2751 14.0109 25.3029 14.0641 25.3346 14.114C25.3663 14.1639 25.3913 14.1956 25.423 14.2364C25.4547 14.2772 25.4893 14.331 25.5256 14.3758C25.5618 14.4206 25.5941 14.4512 25.6287 14.4891C25.6633 14.5271 25.7052 14.5758 25.7471 14.6161C25.7891 14.6563 25.8236 14.6829 25.8605 14.7164C25.8973 14.7498 25.9347 14.7844 25.9738 14.815C25.9392 14.8155 25.9047 14.8155 25.8712 14.8178ZM25.963 8.82701C25.9435 8.86363 25.9203 8.8982 25.8939 8.93015C25.8576 8.98058 25.8134 9.02478 25.763 9.06105C25.7311 9.08747 25.6965 9.11063 25.6599 9.13018C25.5196 9.18904 25.3615 9.18904 25.2213 9.13018C25.1847 9.11063 25.1501 9.08747 25.1181 9.06105C25.0716 9.02811 25.0305 8.98816 24.9963 8.94261C24.9658 8.90812 24.9396 8.87008 24.9181 8.82928C24.8592 8.68903 24.8592 8.53093 24.9181 8.39068C24.9391 8.34797 24.9654 8.30795 24.9963 8.27168V8.27281C25.0305 8.22727 25.0716 8.18732 25.1181 8.15438C25.1501 8.12796 25.1847 8.1048 25.2213 8.08525C25.3615 8.02638 25.5196 8.02638 25.6599 8.08525C25.6965 8.1048 25.7311 8.12796 25.763 8.15438C25.8134 8.19065 25.8576 8.23485 25.8939 8.28528C25.9203 8.31723 25.9435 8.35179 25.963 8.38841C26.0219 8.52866 26.0219 8.68676 25.963 8.82701ZM30.1586 12.6679L30.1575 12.6718C30.0045 12.8489 29.8416 13.017 29.6696 13.1756C29.635 13.2079 29.6005 13.2391 29.5653 13.2702C29.1681 13.6207 28.7283 13.9196 28.2563 14.1599L28.181 14.1962C27.9574 14.3065 27.7273 14.4029 27.4919 14.4852C27.4766 14.4908 27.4619 14.4971 27.446 14.5022L26.6872 13.9332C26.2602 13.6113 26.0086 13.108 26.0072 12.5732V10.2102C26.0344 10.2006 26.0599 10.1881 26.0866 10.1774L26.1138 10.166C26.1336 10.1575 26.154 10.1507 26.1738 10.1411L27.8449 11.8122C27.9671 11.932 28.0999 12.0404 28.2416 12.1363L28.3039 12.18C28.4405 12.2678 28.5844 12.3436 28.734 12.4066C28.7601 12.418 28.7856 12.4282 28.8117 12.4384C28.9648 12.4994 29.1229 12.5473 29.2843 12.5812C29.3007 12.5846 29.3177 12.5863 29.3341 12.5891C29.4978 12.6203 29.6639 12.6368 29.8305 12.6384C29.8385 12.6384 29.8458 12.6384 29.8532 12.6384H29.8634C29.9771 12.6383 30.0906 12.631 30.2034 12.6169C30.1892 12.6361 30.1734 12.6514 30.1586 12.6679ZM31.6337 9.29338C31.6274 9.35005 31.6155 9.40671 31.6076 9.46338C31.5844 9.63338 31.5577 9.79828 31.5209 9.96318C31.5056 10.0323 31.4858 10.0997 31.4682 10.1677C31.4297 10.3156 31.3883 10.4624 31.339 10.6069C31.3129 10.684 31.2823 10.7599 31.2551 10.8336C31.2053 10.9639 31.1509 11.092 31.0925 11.2189C31.0704 11.2665 31.0472 11.313 31.0245 11.36L30.0872 11.4937C29.5578 11.5679 29.0242 11.3901 28.6451 11.0132L26.974 9.34211C26.9836 9.32228 26.9904 9.30188 26.9989 9.28205L27.0102 9.25485C27.021 9.22821 27.0335 9.20271 27.0431 9.17551H29.4072C29.5167 9.17537 29.626 9.16893 29.7348 9.15625C29.7733 9.15171 29.8101 9.14208 29.8481 9.13641C29.9178 9.12508 29.9875 9.11545 30.0561 9.09901C30.0997 9.08881 30.1416 9.07351 30.1847 9.06105C30.2459 9.04348 30.3071 9.02761 30.3672 9.00438C30.4108 8.98851 30.4527 8.96755 30.4964 8.94771C30.553 8.92391 30.6097 8.90181 30.6664 8.87461C30.71 8.85308 30.7508 8.82701 30.7933 8.80321C30.8449 8.77431 30.8981 8.74655 30.948 8.71481C30.9979 8.68308 31.0296 8.65815 31.0704 8.62641C31.1112 8.59468 31.165 8.56011 31.2098 8.52385C31.2546 8.48758 31.2852 8.45528 31.3231 8.42071C31.3611 8.38615 31.4098 8.34421 31.4501 8.30228C31.4903 8.26035 31.5147 8.22748 31.5481 8.18895L31.547 8.19518C31.5798 8.15665 31.615 8.12095 31.6456 8.08185C31.6609 8.25751 31.6728 8.43375 31.6728 8.61338C31.6721 8.84061 31.6591 9.06756 31.6337 9.29338Z" fill="#E67861"/>
<path d="M22.2163 1.50695L22.7789 0.782331L25.4841 2.88254L24.9216 3.60716L22.2163 1.50695Z" fill="#E67861"/>
<path d="M25.6062 14.2831L26.1687 13.5585L28.8739 15.6587L28.3114 16.3833L25.6062 14.2831Z" fill="#E67861"/>
<path d="M28.1947 1.2256L29.1049 1.11101L29.5327 4.50897L28.6225 4.62357L28.1947 1.2256Z" fill="#E67861"/>
<path d="M21.5576 12.6567L22.4678 12.5421L22.8956 15.94L21.9854 16.0546L21.5576 12.6567Z" fill="#E67861"/>
<path d="M18.1879 5.93325L18.0733 5.02308L21.4713 4.59527L21.5859 5.50544L18.1879 5.93325Z" fill="#E67861"/>
<path d="M29.619 12.5704L29.5044 11.6602L32.9023 11.2324L33.0169 12.1426L29.619 12.5704Z" fill="#E67861"/>
<path d="M18.4693 11.9116L17.7447 11.3491L19.8449 8.64385L20.5695 9.20641L18.4693 11.9116Z" fill="#E67861"/>
<path d="M31.2454 8.52181L30.5208 7.95925L32.621 5.25402L33.3456 5.81658L31.2454 8.52181Z" fill="#E67861"/>
<path d="M24.7101 0.537817L25.5067 0.0223374L27.4311 2.99635L26.6345 3.51183L24.7101 0.537817Z" fill="#33485D"/>
<path d="M23.6588 14.1693L24.4554 13.6538L26.3799 16.6278L25.5833 17.1433L23.6588 14.1693Z" fill="#33485D"/>
<path d="M30.6433 2.30377L31.5711 2.50256L30.8289 5.96629L29.9011 5.76751L30.6433 2.30377Z" fill="#33485D"/>
<path d="M20.261 11.1993L21.1888 11.3981L20.4467 14.8619L19.5189 14.6631L20.261 11.1993Z" fill="#33485D"/>
<path d="M19.2659 3.48453L19.4647 2.55674L22.9284 3.29889L22.7297 4.22667L19.2659 3.48453Z" fill="#33485D"/>
<path d="M28.1615 13.8668L28.3603 12.939L31.824 13.6811L31.6252 14.6089L28.1615 13.8668Z" fill="#33485D"/>
<path d="M17.5 9.41776L16.9845 8.62115L19.9585 6.69669L20.474 7.4933L17.5 9.41776Z" fill="#33485D"/>
<path d="M31.1314 10.469L30.616 9.67236L33.59 7.7479L34.1055 8.54451L31.1314 10.469Z" fill="#33485D"/>
</g>
<defs>
<clipPath id="clip0_2401_1301">
<rect width="34" height="34" fill="white"/>
</clipPath>
</defs>
</svg>
